<?xml version="1.0" encoding="utf-8"?>
<!-- Generator: Adobe Illustrator 24.2.1, SVG Export Plug-In . SVG Version: 6.00 Build 0)  -->
<svg version="1.1" xmlns="http://www.w3.org/2000/svg" xmlns:xlink="http://www.w3.org/1999/xlink" x="0px" y="0px"
	 viewBox="0 0 16 16" style="enable-background:new 0 0 16 16;" xml:space="preserve">
<style type="text/css">
	.st0{fill:#FFFFFF;}
</style>
<g id="Layer_2">
</g>
<g id="Layer_1">
	<path d="M12.87,16H3.13c-4.4,0-8-3.6-8-8v0c0-4.4,3.6-8,8-8h9.74c4.4,0,8,3.6,8,8v0C20.87,12.4,17.27,16,12.87,16z"/>
	<g>
		<polygon class="st0" points="1.44,1.35 10.49,2.13 7.11,2.35 7.3,6.04 4.98,4.39 4.86,2.49 		"/>
		<polygon class="st0" points="5.13,10.43 7.3,10.53 7.41,8.19 14.56,14.65 10,7.66 14.2,2.34 11.44,2.34 7.33,8 5.13,7.94 		"/>
	</g>
</g>
</svg>
